<svg width="63" height="63" viewBox="0 0 63 63" fill="none" xmlns="http://www.w3.org/2000/svg">
<path d="M30.8937 45.36C39.4144 45.36 46.3247 38.4497 46.3247 29.929C46.3247 25.0386 44.0489 20.6798 40.4972 17.8526C40.383 17.7581 40.257 17.703 40.1232 17.6755C40.0365 17.6518 39.942 17.64 39.8475 17.64C39.253 17.64 38.7765 18.1165 38.7726 18.711C38.7687 18.7583 38.7687 18.8055 38.7765 18.8528C38.8356 19.3961 38.8632 19.9474 38.8632 20.5105C38.8632 28.9328 32.0355 35.7604 23.6132 35.7604C21.7114 35.7604 19.8884 35.4139 18.211 34.776C18.0732 34.7091 17.9157 34.6736 17.7542 34.6736C17.1636 34.6736 16.6832 35.154 16.6832 35.7446C16.6832 35.9455 16.7384 36.1345 16.8329 36.292C19.2544 41.6391 24.6409 45.36 30.8937 45.36Z" fill="#A599FF"/>
</svg>
