<svg width="63" height="63" viewBox="0 0 63 63" fill="none" xmlns="http://www.w3.org/2000/svg">
<path d="M17.6557 26.0788C17.6361 27.9331 17.9816 29.7729 18.6723 31.4918C19.3629 33.2106 20.385 34.7744 21.6793 36.0926C22.9736 37.4108 24.5144 38.4573 26.2127 39.1715C27.911 39.8857 29.7329 40.2534 31.5732 40.2534C33.4134 40.2534 35.2354 39.8857 36.9337 39.1715C38.6319 38.4573 40.1728 37.4108 41.4671 36.0926C42.7614 34.7744 43.7834 33.2106 44.4741 31.4918C45.1647 29.7729 45.5102 27.9331 45.4907 26.0788C45.5102 24.2245 45.1647 22.3848 44.4741 20.6659C43.7834 18.9471 42.7614 17.3833 41.4671 16.0651C40.1728 14.7469 38.6319 13.7004 36.9337 12.9862C35.2354 12.272 33.4134 11.9043 31.5732 11.9043C29.7329 11.9043 27.911 12.272 26.2127 12.9862C24.5144 13.7004 22.9736 14.7469 21.6793 16.0651C20.385 17.3833 19.3629 18.9471 18.6723 20.6659C17.9816 22.3848 17.6361 24.2245 17.6557 26.0788Z" fill="#FFB810"/>
<path d="M37.5417 46.3081C37.5165 46.4499 37.4866 46.5885 37.4535 46.7255L37.4062 46.9492H37.3921C36.6817 49.3825 34.4342 51.1591 31.7725 51.1591C29.1107 51.1591 26.8632 49.3825 26.1529 46.9492H26.1497L26.1198 46.8342C26.1056 46.7838 26.093 46.7334 26.0804 46.683L23.8156 37.8157H39.3309L37.5417 46.3081Z" fill="#595959"/>
<path fill-rule="evenodd" clip-rule="evenodd" d="M5.9834 5.98343C6.563 5.4054 7.50012 5.4054 8.07815 5.98343C8.08445 5.98973 8.08917 5.99445 8.0939 6.00075L12.4346 10.4753C13.0158 11.0738 13.0079 12.0283 12.4188 12.6189C11.8408 13.1969 10.9021 13.1969 10.3241 12.6189C10.3194 12.6126 10.3131 12.6079 10.3083 12.6016L5.96765 8.127C5.38647 7.5285 5.39435 6.57405 5.9834 5.98343ZM1.62695 15.4492C1.84115 14.6475 2.66645 14.1719 3.46812 14.3861L9.2783 15.9437C10.08 16.1579 10.5572 16.9832 10.3414 17.7849C10.1272 18.5866 9.30192 19.0638 8.50025 18.848L2.69007 17.2919C1.8884 17.0762 1.41117 16.2524 1.62695 15.4492ZM15.4491 1.62698C16.2524 1.4112 17.0761 1.88843 17.2919 2.6901L18.848 8.50028C19.0638 9.30195 18.5865 10.1273 17.7849 10.3415C16.9832 10.5572 16.1579 10.08 15.9437 9.27833L14.386 3.46815C14.1718 2.66648 14.6475 1.84118 15.4491 1.62698Z" fill="#FFB810"/>
</svg>
