<svg width="63" height="63" viewBox="0 0 63 63" fill="none" xmlns="http://www.w3.org/2000/svg">
<path fill-rule="evenodd" clip-rule="evenodd" d="M49.6125 31.5C49.6125 36.3037 47.7042 40.9107 44.3074 44.3075C40.9107 47.7042 36.3037 49.6125 31.5 49.6125C26.6962 49.6125 22.0892 47.7042 18.6925 44.3075C15.2957 40.9107 13.3875 36.3037 13.3875 31.5C13.3875 26.6963 15.2957 22.0893 18.6925 18.6925C22.0892 15.2958 26.6962 13.3875 31.5 13.3875C36.3037 13.3875 40.9107 15.2958 44.3074 18.6925C47.7042 22.0893 49.6125 26.6963 49.6125 31.5Z" fill="#64C5F9"/>
<path fill-rule="evenodd" clip-rule="evenodd" d="M41.202 21.7901C40.6743 21.2625 39.8199 21.2625 39.2923 21.7901L30.7007 30.3818C30.173 30.9094 30.173 31.7638 30.7007 32.2914C31.2283 32.8191 32.0827 32.8191 32.6103 32.2914L41.202 23.6998C41.7257 23.1722 41.7257 22.3178 41.202 21.7901Z" fill="#FCFCFC"/>
<path fill-rule="evenodd" clip-rule="evenodd" d="M24.5858 24.5858C25.1134 24.0581 25.9678 24.0581 26.4955 24.5858L32.2245 30.3148C32.7482 30.8424 32.7482 31.6969 32.2245 32.2245C31.6969 32.7521 30.8425 32.7521 30.3148 32.2245L24.5858 26.4954C24.0582 25.9678 24.0582 25.1134 24.5858 24.5858Z" fill="#FCFCFC"/>
<path d="M31.5 29.925C30.6299 29.925 29.925 30.6298 29.925 31.5C29.925 32.3702 30.6299 33.075 31.5 33.075C32.3702 33.075 33.075 32.3702 33.075 31.5C33.075 30.6298 32.3702 29.925 31.5 29.925Z" fill="#595959"/>
</svg>
